
<svg width="16px" height="16px" viewBox="0 0 55 55" version="1.1" xmlns="http://www.w3.org/2000/svg" xmlns:xlink="http://www.w3.org/1999/xlink">
    <!-- Generator: Sketch 44.1 (41455) - http://www.bohemiancoding.com/sketch -->
    <desc>Created with Sketch.</desc>
    <defs></defs>
    <g id="Welcome" stroke="none" stroke-width="1" fill="none" fill-rule="evenodd">
        <g id="Desktop" transform="translate(-43.000000, -1992.000000)" fill-rule="nonzero" fill="#000">
            <g id="Footer" transform="translate(1.000000, 1966.000000)">
                <g id="iOS-Photos" transform="translate(42.000000, 26.000000)">
                    <path d="M55,27.5 C55,23.5632692 52.8126923,20.1617308 49.6121154,18.3403846 C50.5873077,14.7907692 49.7284615,10.8371154 46.9446154,8.05326923 C44.1607692,5.26942308 40.2092308,4.41057692 36.6596154,5.38576923 C34.8382692,2.18730769 31.4367308,0 27.5,0 C23.5632692,0 20.1617308,2.18730769 18.3403846,5.38788462 C14.7907692,4.41480769 10.8392308,5.27153846 8.05538462,8.05538462 C5.26942308,10.8392308 4.41269231,14.7907692 5.38788462,18.3403846 C2.18730769,20.1617308 0,23.5632692 0,27.5 C0,31.4367308 2.18730769,34.8382692 5.38788462,36.6596154 C4.41269231,40.2092308 5.27153846,44.1628846 8.05538462,46.9467308 C10.1178846,49.0092308 12.8255769,50.0394231 15.5353846,50.0394231 C16.4830769,50.0394231 17.4223077,49.8659615 18.3425,49.6142308 C20.1617308,52.8126923 23.5632692,55 27.5,55 C31.4367308,55 34.8382692,52.8126923 36.6596154,49.6121154 C37.5798077,49.8659615 38.5190385,50.0373077 39.4667308,50.0373077 C42.1765385,50.0373077 44.8842308,49.005 46.9467308,46.9446154 C49.7305769,44.1607692 50.5894231,40.2092308 49.6142308,36.6575 C52.8126923,34.8382692 55,31.4367308 55,27.5 Z M11.0465385,11.0465385 C12.2840385,9.80903846 13.9086538,9.19134615 15.5353846,9.19134615 C16.0430769,9.19134615 16.5465385,9.27384615 17.0436538,9.39442308 C16.9971154,9.78788462 16.9230769,10.1728846 16.9230769,10.5769231 L16.9230769,16.9230769 L10.5769231,16.9230769 C10.1728846,16.9230769 9.78788462,16.9971154 9.39442308,17.0436538 C8.88673077,14.9578846 9.42192308,12.6711538 11.0465385,11.0465385 Z M7.30230769,32.9090385 C5.47038462,31.7942308 4.23076923,29.7973077 4.23076923,27.5 C4.23076923,25.2026923 5.47038462,23.2057692 7.30230769,22.0909615 C7.54980769,22.3998077 7.76769231,22.7255769 8.05326923,23.0111538 L12.5421154,27.5 L8.05326923,31.9888462 C7.76769231,32.2744231 7.54980769,32.5980769 7.30230769,32.9090385 Z M11.0465385,43.9534615 C9.42192308,42.3288462 8.88673077,40.04 9.39442308,37.9563462 C9.78788462,38.0028846 10.1728846,38.0769231 10.5769231,38.0769231 L16.9230769,38.0769231 L16.9230769,44.4230769 C16.9230769,44.8271154 16.9971154,45.2121154 17.0436538,45.6055769 C14.9578846,46.1153846 12.6690385,45.5780769 11.0465385,43.9534615 Z M17.1367308,33.8461538 L12.1782692,33.8461538 L15.6834615,30.3409615 C16.4048077,30.8169231 17.1790385,31.1638462 17.9723077,31.4473077 C17.6126923,32.2067308 17.3101923,33 17.1367308,33.8461538 Z M15.6855769,24.6590385 L12.1782692,21.1538462 L17.1367308,21.1538462 C17.3101923,22 17.6126923,22.7932692 17.9744231,23.5548077 C17.1811538,23.8361538 16.4069231,24.1830769 15.6855769,24.6590385 Z M27.5,4.23076923 C29.7973077,4.23076923 31.7942308,5.47038462 32.9090385,7.30230769 C32.6001923,7.54980769 32.2744231,7.76769231 31.9888462,8.05326923 L27.5,12.5421154 L23.0111538,8.05326923 C22.7255769,7.76769231 22.3998077,7.54769231 22.0909615,7.30230769 C23.2057692,5.47038462 25.2026923,4.23076923 27.5,4.23076923 Z M31.7307692,27.5 C31.7307692,29.8375 29.8375,31.7307692 27.5,31.7307692 C25.1625,31.7307692 23.2692308,29.8375 23.2692308,27.5 C23.2692308,25.1625 25.1625,23.2692308 27.5,23.2692308 C29.8375,23.2692308 31.7307692,25.1625 31.7307692,27.5 Z M21.1538462,12.1782692 L24.6590385,15.6834615 C24.1830769,16.4048077 23.8361538,17.1790385 23.5526923,17.9723077 C22.7911538,17.6105769 22,17.3080769 21.1517308,17.1346154 L21.1517308,12.1782692 L21.1538462,12.1782692 Z M21.1538462,37.8632692 C22,37.6898077 22.7932692,37.3873077 23.5548077,37.0255769 C23.8361538,37.8188462 24.1830769,38.5951923 24.6611538,39.3144231 L21.1538462,42.8217308 L21.1538462,37.8632692 Z M27.5,50.7692308 C25.2026923,50.7692308 23.2057692,49.5296154 22.0909615,47.6976923 C22.3998077,47.4501923 22.7255769,47.2323077 23.0111538,46.9467308 L27.5,42.4578846 L31.9888462,46.9467308 C32.2744231,47.2323077 32.6001923,47.4523077 32.9090385,47.6976923 C31.7942308,49.5296154 29.7973077,50.7692308 27.5,50.7692308 Z M33.8461538,42.8217308 L30.3409615,39.3165385 C30.8169231,38.5951923 31.1638462,37.8209615 31.4473077,37.0276923 C32.2088462,37.3894231 33,37.6919231 33.8482692,37.8653846 L33.8482692,42.8217308 L33.8461538,42.8217308 Z M33.8461538,17.1367308 C33,17.3101923 32.2067308,17.6126923 31.4451923,17.9744231 C31.1638462,17.1811538 30.8169231,16.4048077 30.3388462,15.6855769 L33.8461538,12.1782692 L33.8461538,17.1367308 Z M39.4667308,9.19134615 C41.0934615,9.19134615 42.7180769,9.80903846 43.9555769,11.0465385 C45.5801923,12.6711538 46.1153846,14.96 45.6076923,17.0436538 C45.2121154,16.9971154 44.8271154,16.9230769 44.4230769,16.9230769 L38.0769231,16.9230769 L38.0769231,10.5769231 C38.0769231,10.1728846 38.0028846,9.78788462 37.9563462,9.39442308 C38.4534615,9.27384615 38.9569231,9.19134615 39.4667308,9.19134615 Z M37.8632692,21.1538462 L42.8217308,21.1538462 L39.3165385,24.6590385 C38.5951923,24.1830769 37.8209615,23.8361538 37.0255769,23.5548077 C37.3873077,22.7932692 37.6898077,22.0021154 37.8632692,21.1538462 Z M37.0255769,31.4451923 C37.8188462,31.1638462 38.5951923,30.8169231 39.3144231,30.3388462 L42.8217308,33.8461538 L37.8632692,33.8461538 C37.6898077,33 37.3873077,32.2067308 37.0255769,31.4451923 Z M43.9534615,43.9534615 C42.3288462,45.5759615 40.04,46.1132692 37.9563462,45.6055769 C38.0028846,45.2121154 38.0769231,44.8271154 38.0769231,44.4230769 L38.0769231,38.0769231 L44.4230769,38.0769231 C44.8271154,38.0769231 45.2121154,38.0028846 45.6055769,37.9563462 C46.1132692,40.0421154 45.5780769,42.3288462 43.9534615,43.9534615 Z M47.6976923,32.9090385 C47.4501923,32.6001923 47.2323077,32.2744231 46.9467308,31.9888462 L42.4578846,27.5 L46.9467308,23.0111538 C47.2323077,22.7255769 47.4523077,22.3998077 47.6976923,22.0909615 C49.5296154,23.2057692 50.7692308,25.2026923 50.7692308,27.5 C50.7692308,29.7973077 49.5296154,31.7942308 47.6976923,32.9090385 Z" id="Shape"></path>
                </g>
            </g>
        </g>
    </g>
</svg>
