<svg width="493px" height="385px" viewBox="0 0 493 385" version="1.1" xmlns="http://www.w3.org/2000/svg" xmlns:xlink="http://www.w3.org/1999/xlink">
  <defs>
    <path d="M0,8.99659217 C0,4.02791152 4.02266514,0 9.00440206,0 L483.995598,0 C488.968592,0 493,4.02199838 493,9.00829646 L493,45.3216983 L493,329.796099 C493,334.768816 488.977335,338.8 483.995598,338.8 L9.00440206,338.8 C4.03140812,338.8 0,334.774044 0,329.803408 L0,8.99659217 Z" id="path-1"></path>
  </defs>
  <g id="Welcome" stroke="none" stroke-width="1" fill="none" fill-rule="evenodd">
    <g id="Desktop" transform="translate(-266.000000, -469.000000)">
      <g id="Preview" transform="translate(266.000000, 469.000000)">
        <g id="iMac">
          <g>
            <use fill="#FFFFFF" fill-rule="evenodd" xlink:href="#path-1"></use>
            <path stroke="#262626" stroke-width="2" d="M1,8.99659217 L1,329.803408 C1,334.220856 4.58278915,337.8 9.00440206,337.8 L483.995598,337.8 C488.421893,337.8 492,334.21969 492,329.796099 L492,9.00829646 C492,4.57822993 488.420256,1 483.995598,1 L9.00440206,1 C4.57792542,1 1,4.57722134 1,8.99659217 Z"></path>
          </g>
          <rect id="Screen" stroke="#050505" x="21.0416667" y="21.0333333" width="450.916667" height="253.1"></rect>
          <rect id="Stand" stroke="#000000" x="199.497396" y="338.016667" width="94.0052083" height="45.2"></rect>
          <rect id="Screen-Divider" fill="#000000" x="1.28385417" y="293.883333" width="490.432292" height="1.28333333"></rect>
          <rect id="Stand-Base" fill="#000000" x="163.049479" y="382.433333" width="166.901042" height="2.56666667"></rect>
          <path d="M246.5,12.8333333 C247.209053,12.8333333 247.783854,12.2587654 247.783854,11.55 C247.783854,10.8412346 247.209053,10.2666667 246.5,10.2666667 C245.790947,10.2666667 245.216146,10.8412346 245.216146,11.55 C245.216146,12.2587654 245.790947,12.8333333 246.5,12.8333333 Z" id="Camera" fill="#000000"></path>
        </g>
      </g>
    </g>
  </g>
</svg>
