<?xml version="1.0" encoding="UTF-8"?>
<svg width="482px" height="482px" viewBox="0 0 482 482" version="1.1" xmlns="http://www.w3.org/2000/svg" xmlns:xlink="http://www.w3.org/1999/xlink">
    <!-- Generator: Sketch 45.2 (43514) - http://www.bohemiancoding.com/sketch -->
    <title>Clarity Hub</title>
    <defs></defs>
    <g id="Page-1" stroke="none" stroke-width="1" fill="none" fill-rule="evenodd">
        <g id="Artboard" transform="translate(-318.000000, -172.000000)">
            <g id="clarityHubIcon" transform="translate(318.000000, 172.000000)">
                <path d="M240.56,461.36 C171.335624,461.405967 106.103731,428.95651 64.3797333,373.719526 C22.6557354,318.482542 9.27846613,246.863999 28.25,180.29 C40.6564566,137.120922 65.8282913,98.7130456 100.46,70.11 C135.283618,41.4162106 178.102879,24.1495345 223.09,20.66 C316.063251,13.3100656 403.638059,65.1346643 441.94,150.17 C460.82,191.59 466.02,239.44 457.01,284.01 C438.739391,374.716767 365.92131,444.454544 274.51,458.79 C263.275725,460.509465 251.925045,461.355333 240.56,461.32 C227.69,461.32 227.67,481.32 240.56,481.32 C289.96,481.17 338.99,466 379.29,437.32 C419.299449,408.858091 449.791332,368.987575 466.78,322.92 C484.07,275.92 485.78,223.15 472.16,174.92 C451.619852,102.743277 398.608723,44.2662235 328.787355,16.7643415 C258.965986,-10.7375405 180.315091,-4.120734 116.07,34.66 C75.02,59.55 41.43,96.9 21.63,140.66 C0.683978529,187.018657 -5.23915309,238.767387 4.69,288.66 C14.4681912,336.705619 38.6888227,380.618161 74.11,414.52 C109.24,448.09 154.54,470.95 202.64,478.32 C215.184327,480.262663 227.856258,481.265453 240.55,481.32 C253.43,481.4 253.45,461.4 240.56,461.36 Z" id="Shape" fill="#FFFFFF" fill-rule="nonzero"></path>
                <path d="M238.25,164.07 C238.25,164.07 335.86,68.25 419.39,175.54 C419.39,175.54 513.26,309.03 238.25,385.19 C238.25,385.19 -12.42,324.26 59.06,180.46 C60.5,177 122.65,70.71 238.25,164.07 Z" id="Shape" stroke="#FFFFFF" stroke-width="22"></path>
                <path d="M308.93,199.54 C308.93,199.54 349.83,173.45 371.68,202.36 C393.53,231.27 363.25,253.59 363.25,253.59 C363.25,253.59 331.52,277.45 301.91,264.41 C272.3,251.37 285.69,225.63 285.69,225.63 C285.69,225.63 296.06,205.79 308.93,199.54 Z" id="Shape" fill="#FFFFFF" fill-rule="nonzero"></path>
                <path d="M171.65,199.54 C171.65,199.54 130.75,173.45 108.9,202.36 C87.05,231.27 117.36,253.59 117.36,253.59 C117.36,253.59 149.09,277.45 178.7,264.41 C208.31,251.37 194.92,225.63 194.92,225.63 C194.92,225.63 184.52,205.79 171.65,199.54 Z" id="Shape" fill="#FFFFFF" fill-rule="nonzero"></path>
                <path d="M252.7,318.79 C252.7,318.79 264.55,308.28 252.7,276.52 C252.7,276.52 248.64,262.23 238.27,263.32 C227.9,264.41 222.4,292.89 222.4,292.89 C222.4,292.89 216.66,314.64 229.24,321.97 C241.82,329.3 249.91,323 252.7,318.79 Z" id="Shape" fill="#FFFFFF" fill-rule="nonzero"></path>
            </g>
        </g>
    </g>
</svg>
