<svg version="1" xmlns="http://www.w3.org/2000/svg" width="616" height="616" viewBox="0 0 462.000000 462.000000"><path d="M210 1c-22.3 2.3-44.5 7.6-63 15C69.9 46.7 16.9 112.7 2.8 195.5c-2.9 17.3-3.1 51.1-.5 68.5 10.3 66.6 46.5 123.4 102.2 160.5 28.6 19 66.7 32.6 101.7 36.4 13.4 1.5 39 1.3 52.8-.4 76.9-9.2 144.2-56.7 178.8-126 10.3-20.7 17.1-41.4 21.4-65.2 3-17.2 3.3-56.7.5-73.5-8.7-51.4-31.4-95.1-68-130.5C356.6 31.4 313.5 10 264.9 2.5 252.5.6 221.9-.2 210 1zm134.2 117.9c15.2 4.2 29.5 12.1 43.8 24.4 18.7 16 28.5 31.2 34.2 53 3.2 12.2 3.2 33.9-.1 45.7-5.3 19.4-15.6 36.4-31.6 52.6-29.9 30.2-79.1 55.9-144.7 75.6l-16.9 5.1-11.2-3.2c-35.1-10.2-74.9-27.1-102.2-43.7-68.2-41.2-92-91.3-69.8-146.8 4.5-11.5 9.5-18.8 20.2-29.9 11.3-11.8 19.3-17.7 32.6-24.2 14.8-7.2 25.5-9.8 41-9.8 27.1.1 52.8 10.1 82.2 32.1l7.3 5.4 5.7-4.9c18.3-15.6 41.9-27.6 63.3-32.2 12.7-2.8 34.6-2.4 46.2.8z"/><path d="M116.3 180.4c-9.1 2.9-17 10.2-22 20.5-2.3 4.6-2.8 6.9-2.8 13.1 0 15.3 9.6 28.1 27.8 37 11.9 5.8 20.3 8 30.8 8 21.4 0 38.9-13.2 38.9-29.5-.1-9.8-6.5-22-17.4-32.9-12.8-12.7-40.4-20.8-55.3-16.2zM320 181c-9.2 2.5-20.3 7.8-26.8 12.9-5.1 4.1-13.4 14.6-17.3 22.1-3.1 5.8-3.4 19.6-.6 24.7 4.1 7.6 12.5 13.4 24.2 16.8 21.1 6.2 55-7.1 66-25.9 4-6.8 5.9-16 4.6-22.2-2.3-11.5-10.2-22.4-19.9-27.1-7.5-3.7-19.4-4.2-30.2-1.3zM225.3 254.9c-7.8 4.9-16 32.8-13.3 45.5 1.9 9.5 9.3 15.5 18.8 15.6 14.5.1 21.4-15.9 16.3-37.5-4.8-20.3-12.9-29.1-21.8-23.6z"/></svg>